{
  "accessors": [
    {
      "bufferView": 2,
      "componentType": 5126,
      "count": 10094,
      "max": [
        0.82383698225021362,
        0.36469951272010803,
        1.0421754121780396
      ],
      "min": [
        -0.82383698225021362,
        -0.95898300409317017,
        -1.3015846014022827
      ],
      "type": "VEC3"
    },
    {
      "bufferView": 2,
      "byteOffset": 121128,
      "componentType": 5126,
      "count": 10094,
      "max": [
        0.99917906522750854,
        1,
        0.99814450740814209
      ],
      "min": [
        -0.99931257963180542,
        -1,
        -0.9988631010055542
      ],
      "type": "VEC3"
    },
    {
      "bufferView": 3,
      "componentType": 5126,
      "count": 10094,
      "max": [
        0.99999701976776123,
        0.99981921911239624,
        1,
        1
      ],
      "min": [
        -1,
        -0.9998200535774231,
        -0.99999874830245972,
        -1
      ],
      "type": "VEC4"
    },
    {
      "bufferView": 1,
      "componentType": 5126,
      "count": 10094,
      "max": [
        1.4014630317687988,
        1
      ],
      "min": [
        0,
        0
      ],
      "type": "VEC2"
    },
    {
      "bufferView": 0,
      "componentType": 5125,
      "count": 25482,
      "max": [
        10093
      ],
      "min": [
        0
      ],
      "type": "SCALAR"
    }
  ],
  "asset": {
    "extras": {
      "author": "newfields-3dprinting (https://sketchfab.com/newfields-3dprinting)",
      "license": "CC-BY-4.0 (http://creativecommons.org/licenses/by/4.0/)",
      "source": "https://sketchfab.com/3d-models/tue-02-apr-2019-192806-67ea8fdb14ad4f808a04b61b54367d88",
      "title": "Tue, 02 Apr 2019 19:28:06"
    },
    "generator": "Sketchfab-4.82.1",
    "version": "2.0"
  },
  "bufferViews": [
    {
      "buffer": 0,
      "byteLength": 101928,
      "byteOffset": 0,
      "name": "floatBufferViews",
      "target": 34963
    },
    {
      "buffer": 0,
      "byteLength": 80752,
      "byteOffset": 101928,
      "byteStride": 8,
      "name": "floatBufferViews",
      "target": 34962
    },
    {
      "buffer": 0,
      "byteLength": 242256,
      "byteOffset": 182680,
      "byteStride": 12,
      "name": "floatBufferViews",
      "target": 34962
    },
    {
      "buffer": 0,
      "byteLength": 161504,
      "byteOffset": 424936,
      "byteStride": 16,
      "name": "floatBufferViews",
      "target": 34962
    }
  ],
  "buffers": [
    {
      "byteLength": 586440,
      "uri": "scene.bin"
    }
  ],
  "materials": [
    {
      "doubleSided": true,
      "emissiveFactor": [
        0,
        0,
        0
      ],
      "name": "Matrl",
      "pbrMetallicRoughness": {
        "baseColorFactor": [
          0.89803900000000003,
          0.34117599999999998,
          0.24313699999999999,
          1
        ],
        "metallicFactor": 0,
        "roughnessFactor": 1
      }
    }
  ],
  "meshes": [
    {
      "primitives": [
        {
          "attributes": {
            "NORMAL": 1,
            "POSITION": 0,
            "TANGENT": 2,
            "TEXCOORD_0": 3
          },
          "indices": 4,
          "material": 0,
          "mode": 4
        }
      ]
    }
  ],
  "nodes": [
    {
      "children": [
        1
      ],
      "name": "RootNode (gltf orientation matrix)",
      "rotation": [
        -0.70710678118654746,
        -0,
        -0,
        0.70710678118654757
      ]
    },
    {
      "children": [
        2
      ],
      "matrix": [
        1,
        0,
        0,
        0,
        0,
        0,
        -1,
        0,
        0,
        1,
        0,
        0,
        0,
        0,
        0,
        1
      ],
      "name": "RootNode (model correction matrix)"
    },
    {
      "children": [
        3
      ],
      "name": "object.obj.cleaner.materialmerger.gles"
    },
    {
      "mesh": 0,
      "name": ""
    }
  ],
  "scene": 0,
  "scenes": [
    {
      "name": "OSG_Scene",
      "nodes": [
        0
      ]
    }
  ]
}

