{
  "accessors": [
    {
      "bufferView": 2,
      "componentType": 5126,
      "count": 436,
      "max": [
        0.60014265775680542,
        1.6203974485397339,
        0.48472636938095093
      ],
      "min": [
        -0.60014265775680542,
        1.5331209426715033e-20,
        -0.48472636938095093
      ],
      "type": "VEC3"
    },
    {
      "bufferView": 2,
      "byteOffset": 5232,
      "componentType": 5126,
      "count": 436,
      "max": [
        0.9999159574508667,
        0.9695778489112854,
        0.9967494010925293
      ],
      "min": [
        -0.99817657470703125,
        -0.99035030603408813,
        -0.99785846471786499
      ],
      "type": "VEC3"
    },
    {
      "bufferView": 3,
      "componentType": 5126,
      "count": 436,
      "max": [
        0.99454641342163086,
        0.99406778812408447,
        0.999977707862854,
        1
      ],
      "min": [
        -0.98450815677642822,
        -0.99753224849700928,
        -0.98264193534851074,
        1
      ],
      "type": "VEC4"
    },
    {
      "bufferView": 1,
      "componentType": 5126,
      "count": 436,
      "max": [
        0.96775496006011963,
        0.99000000953674316
      ],
      "min": [
        0.0099999997764825821,
        0.017387986183166504
      ],
      "type": "VEC2"
    },
    {
      "bufferView": 1,
      "byteOffset": 3488,
      "componentType": 5126,
      "count": 436,
      "max": [
        0.96775496006011963,
        0.99000000953674316
      ],
      "min": [
        0.0099999997764825821,
        0.017387986183166504
      ],
      "type": "VEC2"
    },
    {
      "bufferView": 1,
      "byteOffset": 6976,
      "componentType": 5126,
      "count": 436,
      "max": [
        0.96775496006011963,
        0.99000000953674316
      ],
      "min": [
        0.0099999997764825821,
        0.017387986183166504
      ],
      "type": "VEC2"
    },
    {
      "bufferView": 1,
      "byteOffset": 10464,
      "componentType": 5126,
      "count": 436,
      "max": [
        0.96775496006011963,
        0.99000000953674316
      ],
      "min": [
        0.0099999997764825821,
        0.017387986183166504
      ],
      "type": "VEC2"
    },
    {
      "bufferView": 0,
      "componentType": 5125,
      "count": 1824,
      "max": [
        435
      ],
      "min": [
        0
      ],
      "type": "SCALAR"
    },
    {
      "bufferView": 2,
      "byteOffset": 10464,
      "componentType": 5126,
      "count": 436,
      "max": [
        0.60014265775680542,
        1.6203974485397339,
        0.48472636938095093
      ],
      "min": [
        -0.60014265775680542,
        1.5331209426715033e-20,
        -0.48472636938095093
      ],
      "type": "VEC3"
    },
    {
      "bufferView": 2,
      "byteOffset": 15696,
      "componentType": 5126,
      "count": 436,
      "max": [
        0.9999159574508667,
        0.9695778489112854,
        0.9967494010925293
      ],
      "min": [
        -0.99817657470703125,
        -0.99035030603408813,
        -0.99785846471786499
      ],
      "type": "VEC3"
    },
    {
      "bufferView": 3,
      "byteOffset": 6976,
      "componentType": 5126,
      "count": 436,
      "max": [
        0.99454641342163086,
        0.99406778812408447,
        0.999977707862854,
        1
      ],
      "min": [
        -0.98450815677642822,
        -0.99753224849700928,
        -0.98264193534851074,
        1
      ],
      "type": "VEC4"
    },
    {
      "bufferView": 1,
      "byteOffset": 13952,
      "componentType": 5126,
      "count": 436,
      "max": [
        0.96775496006011963,
        0.99000000953674316
      ],
      "min": [
        0.0099999997764825821,
        0.017387986183166504
      ],
      "type": "VEC2"
    },
    {
      "bufferView": 1,
      "byteOffset": 17440,
      "componentType": 5126,
      "count": 436,
      "max": [
        0.96775496006011963,
        0.99000000953674316
      ],
      "min": [
        0.0099999997764825821,
        0.017387986183166504
      ],
      "type": "VEC2"
    },
    {
      "bufferView": 1,
      "byteOffset": 20928,
      "componentType": 5126,
      "count": 436,
      "max": [
        0.96775496006011963,
        0.99000000953674316
      ],
      "min": [
        0.0099999997764825821,
        0.017387986183166504
      ],
      "type": "VEC2"
    },
    {
      "bufferView": 0,
      "byteOffset": 7296,
      "componentType": 5125,
      "count": 1824,
      "max": [
        435
      ],
      "min": [
        0
      ],
      "type": "SCALAR"
    }
  ],
  "asset": {
    "extras": {
      "author": "PolyToots (https://sketchfab.com/GaryDave)",
      "license": "CC-BY-4.0 (http://creativecommons.org/licenses/by/4.0/)",
      "source": "https://sketchfab.com/3d-models/crystals-0499073f160248adb451bf4135e5f50a",
      "title": "Crystals"
    },
    "generator": "Sketchfab-4.80.0",
    "version": "2.0"
  },
  "bufferViews": [
    {
      "buffer": 0,
      "byteLength": 14592,
      "byteOffset": 0,
      "name": "floatBufferViews",
      "target": 34963
    },
    {
      "buffer": 0,
      "byteLength": 24416,
      "byteOffset": 14592,
      "byteStride": 8,
      "name": "floatBufferViews",
      "target": 34962
    },
    {
      "buffer": 0,
      "byteLength": 20928,
      "byteOffset": 39008,
      "byteStride": 12,
      "name": "floatBufferViews",
      "target": 34962
    },
    {
      "buffer": 0,
      "byteLength": 13952,
      "byteOffset": 59936,
      "byteStride": 16,
      "name": "floatBufferViews",
      "target": 34962
    }
  ],
  "buffers": [
    {
      "byteLength": 73888,
      "uri": "scene.bin"
    }
  ],
  "images": [
    {
      "uri": "textures/Crystal_Self_emissive.png"
    },
    {
      "uri": "textures/Crystal_Self_baseColor.png"
    },
    {
      "uri": "textures/Crystal_PBR_emissive.png"
    },
    {
      "uri": "textures/Crystal_PBR_baseColor.png"
    },
    {
      "uri": "textures/Crystal_PBR_normal.png"
    }
  ],
  "materials": [
    {
      "doubleSided": false,
      "emissiveFactor": [
        1,
        1,
        1
      ],
      "emissiveTexture": {
        "index": 2,
        "texCoord": 0
      },
      "name": "Crystal_PBR",
      "normalTexture": {
        "index": 4,
        "scale": 1,
        "texCoord": 0
      },
      "pbrMetallicRoughness": {
        "baseColorFactor": [
          1,
          1,
          1,
          1
        ],
        "baseColorTexture": {
          "index": 3,
          "texCoord": 0
        },
        "metallicFactor": 0.80659298779999999,
        "roughnessFactor": 0
      }
    },
    {
      "doubleSided": false,
      "emissiveFactor": [
        1,
        1,
        1
      ],
      "emissiveTexture": {
        "index": 0,
        "texCoord": 1
      },
      "name": "Crystal_Self",
      "pbrMetallicRoughness": {
        "baseColorFactor": [
          1,
          1,
          1,
          1
        ],
        "baseColorTexture": {
          "index": 1,
          "texCoord": 0
        },
        "metallicFactor": 0,
        "roughnessFactor": 0
      }
    }
  ],
  "meshes": [
    {
      "primitives": [
        {
          "attributes": {
            "NORMAL": 1,
            "POSITION": 0,
            "TANGENT": 2,
            "TEXCOORD_0": 3,
            "TEXCOORD_1": 4,
            "TEXCOORD_2": 5,
            "TEXCOORD_3": 6
          },
          "indices": 7,
          "material": 0,
          "mode": 4
        }
      ]
    },
    {
      "primitives": [
        {
          "attributes": {
            "NORMAL": 9,
            "POSITION": 8,
            "TANGENT": 10,
            "TEXCOORD_0": 11,
            "TEXCOORD_1": 12,
            "TEXCOORD_2": 13
          },
          "indices": 14,
          "material": 1,
          "mode": 4
        }
      ]
    }
  ],
  "nodes": [
    {
      "children": [
        1
      ],
      "name": "RootNode (gltf orientation matrix)",
      "rotation": [
        -0.70710678118654746,
        -0,
        -0,
        0.70710678118654757
      ]
    },
    {
      "children": [
        2
      ],
      "name": "RootNode (model correction matrix)"
    },
    {
      "children": [
        3
      ],
      "name": "root"
    },
    {
      "children": [
        4,
        6
      ],
      "matrix": [
        1,
        0,
        0,
        0,
        0,
        2.2204460492503131e-16,
        1,
        0,
        0,
        -1,
        2.2204460492503131e-16,
        0,
        0,
        0,
        0,
        1
      ],
      "name": "GLTF_SceneRootNode"
    },
    {
      "children": [
        5
      ],
      "matrix": [
        1,
        0,
        0,
        0,
        0,
        0.999999999999999,
        -4.3711388286737909e-08,
        0,
        0,
        4.3711388286737909e-08,
        0.999999999999999,
        0,
        0.69999998807907104,
        0,
        0,
        1
      ],
      "name": "Crystal_2"
    },
    {
      "mesh": 0,
      "name": ""
    },
    {
      "children": [
        7
      ],
      "matrix": [
        1,
        0,
        0,
        0,
        0,
        0.999999999999999,
        -4.3711388286737909e-08,
        0,
        0,
        4.3711388286737909e-08,
        0.999999999999999,
        0,
        -0.69999998807907104,
        0,
        -1.1307049518904932e-08,
        1
      ],
      "name": "Crystal (1)_3"
    },
    {
      "mesh": 1,
      "name": ""
    }
  ],
  "samplers": [
    {
      "magFilter": 9729,
      "minFilter": 9729,
      "wrapS": 10497,
      "wrapT": 10497
    }
  ],
  "scene": 0,
  "scenes": [
    {
      "name": "OSG_Scene",
      "nodes": [
        0
      ]
    }
  ],
  "textures": [
    {
      "sampler": 0,
      "source": 0
    },
    {
      "sampler": 0,
      "source": 1
    },
    {
      "sampler": 0,
      "source": 2
    },
    {
      "sampler": 0,
      "source": 3
    },
    {
      "sampler": 0,
      "source": 4
    }
  ]
}

