{
  "accessors": [
    {
      "bufferView": 2,
      "componentType": 5126,
      "count": 2201,
      "max": [
        27.84343147277832,
        28.157655715942383,
        16.056791305541992
      ],
      "min": [
        -27.945274353027344,
        -28.052022933959961,
        -16.056791305541992
      ],
      "type": "VEC3"
    },
    {
      "bufferView": 2,
      "byteOffset": 26412,
      "componentType": 5126,
      "count": 2201,
      "max": [
        1,
        1,
        1
      ],
      "min": [
        -1,
        -1,
        -1
      ],
      "type": "VEC3"
    },
    {
      "bufferView": 3,
      "componentType": 5126,
      "count": 2201,
      "max": [
        1,
        1,
        0.99958723783493042,
        1
      ],
      "min": [
        -1,
        -0.99869179725646973,
        -0.99958723783493042,
        -1
      ],
      "type": "VEC4"
    },
    {
      "bufferView": 1,
      "componentType": 5126,
      "count": 2201,
      "max": [
        0.99000000953674316,
        0.89851069450378418
      ],
      "min": [
        0.0099999997764825821,
        0.0099999997764825821
      ],
      "type": "VEC2"
    },
    {
      "bufferView": 0,
      "componentType": 5125,
      "count": 4212,
      "max": [
        2200
      ],
      "min": [
        0
      ],
      "type": "SCALAR"
    },
    {
      "bufferView": 2,
      "byteOffset": 52824,
      "componentType": 5126,
      "count": 17057,
      "max": [
        155.7735595703125,
        35.477485656738281,
        53.285377502441406
      ],
      "min": [
        -121.75606536865234,
        -57.059501647949219,
        -146.176025390625
      ],
      "type": "VEC3"
    },
    {
      "bufferView": 2,
      "byteOffset": 257508,
      "componentType": 5126,
      "count": 17057,
      "max": [
        1,
        1,
        1
      ],
      "min": [
        -1,
        -1,
        -1
      ],
      "type": "VEC3"
    },
    {
      "bufferView": 3,
      "byteOffset": 35216,
      "componentType": 5126,
      "count": 17057,
      "max": [
        1,
        1,
        1,
        1
      ],
      "min": [
        -1,
        -1,
        -1,
        -1
      ],
      "type": "VEC4"
    },
    {
      "bufferView": 1,
      "byteOffset": 17608,
      "componentType": 5126,
      "count": 17057,
      "max": [
        0.9800153374671936,
        0.99000000953674316
      ],
      "min": [
        0.0099999997764825821,
        0.0035791844129562378
      ],
      "type": "VEC2"
    },
    {
      "bufferView": 0,
      "byteOffset": 16848,
      "componentType": 5125,
      "count": 49938,
      "max": [
        17056
      ],
      "min": [
        0
      ],
      "type": "SCALAR"
    },
    {
      "bufferView": 2,
      "byteOffset": 462192,
      "componentType": 5126,
      "count": 2201,
      "max": [
        27.84343147277832,
        28.157655715942383,
        16.056791305541992
      ],
      "min": [
        -27.945274353027344,
        -28.052022933959961,
        -16.056791305541992
      ],
      "type": "VEC3"
    },
    {
      "bufferView": 2,
      "byteOffset": 488604,
      "componentType": 5126,
      "count": 2201,
      "max": [
        1,
        1,
        1
      ],
      "min": [
        -1,
        -1,
        -1
      ],
      "type": "VEC3"
    },
    {
      "bufferView": 3,
      "byteOffset": 308128,
      "componentType": 5126,
      "count": 2201,
      "max": [
        1,
        1,
        0.99958723783493042,
        1
      ],
      "min": [
        -1,
        -0.99869179725646973,
        -0.99958723783493042,
        -1
      ],
      "type": "VEC4"
    },
    {
      "bufferView": 1,
      "byteOffset": 154064,
      "componentType": 5126,
      "count": 2201,
      "max": [
        0.99000000953674316,
        0.89851069450378418
      ],
      "min": [
        0.0099999997764825821,
        0.0099999997764825821
      ],
      "type": "VEC2"
    },
    {
      "bufferView": 0,
      "byteOffset": 216600,
      "componentType": 5125,
      "count": 4212,
      "max": [
        2200
      ],
      "min": [
        0
      ],
      "type": "SCALAR"
    },
    {
      "bufferView": 2,
      "byteOffset": 515016,
      "componentType": 5126,
      "count": 2201,
      "max": [
        27.84343147277832,
        28.157655715942383,
        16.056791305541992
      ],
      "min": [
        -27.945274353027344,
        -28.052022933959961,
        -16.056791305541992
      ],
      "type": "VEC3"
    },
    {
      "bufferView": 2,
      "byteOffset": 541428,
      "componentType": 5126,
      "count": 2201,
      "max": [
        1,
        1,
        1
      ],
      "min": [
        -1,
        -1,
        -1
      ],
      "type": "VEC3"
    },
    {
      "bufferView": 3,
      "byteOffset": 343344,
      "componentType": 5126,
      "count": 2201,
      "max": [
        1,
        1,
        0.99958723783493042,
        1
      ],
      "min": [
        -1,
        -0.99869179725646973,
        -0.99958723783493042,
        -1
      ],
      "type": "VEC4"
    },
    {
      "bufferView": 1,
      "byteOffset": 171672,
      "componentType": 5126,
      "count": 2201,
      "max": [
        0.99000000953674316,
        0.89851069450378418
      ],
      "min": [
        0.0099999997764825821,
        0.0099999997764825821
      ],
      "type": "VEC2"
    },
    {
      "bufferView": 0,
      "byteOffset": 233448,
      "componentType": 5125,
      "count": 4212,
      "max": [
        2200
      ],
      "min": [
        0
      ],
      "type": "SCALAR"
    },
    {
      "bufferView": 2,
      "byteOffset": 567840,
      "componentType": 5126,
      "count": 2201,
      "max": [
        27.84343147277832,
        28.157655715942383,
        16.056791305541992
      ],
      "min": [
        -27.945274353027344,
        -28.052022933959961,
        -16.056791305541992
      ],
      "type": "VEC3"
    },
    {
      "bufferView": 2,
      "byteOffset": 594252,
      "componentType": 5126,
      "count": 2201,
      "max": [
        1,
        1,
        1
      ],
      "min": [
        -1,
        -1,
        -1
      ],
      "type": "VEC3"
    },
    {
      "bufferView": 3,
      "byteOffset": 378560,
      "componentType": 5126,
      "count": 2201,
      "max": [
        1,
        1,
        0.99958723783493042,
        1
      ],
      "min": [
        -1,
        -0.99869179725646973,
        -0.99958723783493042,
        -1
      ],
      "type": "VEC4"
    },
    {
      "bufferView": 1,
      "byteOffset": 189280,
      "componentType": 5126,
      "count": 2201,
      "max": [
        0.99000000953674316,
        0.89851069450378418
      ],
      "min": [
        0.0099999997764825821,
        0.0099999997764825821
      ],
      "type": "VEC2"
    },
    {
      "bufferView": 0,
      "byteOffset": 250296,
      "componentType": 5125,
      "count": 4212,
      "max": [
        2200
      ],
      "min": [
        0
      ],
      "type": "SCALAR"
    }
  ],
  "asset": {
    "extras": {
      "author": "Mora (https://sketchfab.com/Fopen)",
      "license": "CC-BY-4.0 (http://creativecommons.org/licenses/by/4.0/)",
      "source": "https://sketchfab.com/3d-models/sci-fi-tron-car-e93e415df9b2447e97b60ff068e9b18a",
      "title": "Sci-Fi Tron Car"
    },
    "generator": "Sketchfab-4.81.0",
    "version": "2.0"
  },
  "bufferViews": [
    {
      "buffer": 0,
      "byteLength": 267144,
      "byteOffset": 0,
      "name": "floatBufferViews",
      "target": 34963
    },
    {
      "buffer": 0,
      "byteLength": 206888,
      "byteOffset": 267144,
      "byteStride": 8,
      "name": "floatBufferViews",
      "target": 34962
    },
    {
      "buffer": 0,
      "byteLength": 620664,
      "byteOffset": 474032,
      "byteStride": 12,
      "name": "floatBufferViews",
      "target": 34962
    },
    {
      "buffer": 0,
      "byteLength": 413776,
      "byteOffset": 1094696,
      "byteStride": 16,
      "name": "floatBufferViews",
      "target": 34962
    }
  ],
  "buffers": [
    {
      "byteLength": 1508472,
      "uri": "scene.bin"
    }
  ],
  "images": [
    {
      "uri": "textures/MTA_Auto_normal.png"
    },
    {
      "uri": "textures/MTA_Auto_baseColor.png"
    },
    {
      "uri": "textures/MTA_Auto_metallicRoughness.png"
    },
    {
      "uri": "textures/MTA_Auto_emissive.png"
    },
    {
      "uri": "textures/MTA_LLanta_normal.png"
    },
    {
      "uri": "textures/MTA_LLanta_baseColor.png"
    },
    {
      "uri": "textures/MTA_LLanta_metallicRoughness.png"
    },
    {
      "uri": "textures/MTA_LLanta_emissive.png"
    }
  ],
  "materials": [
    {
      "doubleSided": true,
      "emissiveFactor": [
        1,
        1,
        1
      ],
      "emissiveTexture": {
        "index": 7,
        "texCoord": 0
      },
      "name": "MTA_LLanta",
      "normalTexture": {
        "index": 4,
        "scale": 1,
        "texCoord": 0
      },
      "occlusionTexture": {
        "index": 6,
        "strength": 1,
        "texCoord": 0
      },
      "pbrMetallicRoughness": {
        "baseColorFactor": [
          1,
          1,
          1,
          1
        ],
        "baseColorTexture": {
          "index": 5,
          "texCoord": 0
        },
        "metallicFactor": 1,
        "metallicRoughnessTexture": {
          "index": 6,
          "texCoord": 0
        },
        "roughnessFactor": 1
      }
    },
    {
      "doubleSided": true,
      "emissiveFactor": [
        1,
        1,
        1
      ],
      "emissiveTexture": {
        "index": 3,
        "texCoord": 0
      },
      "name": "MTA_Auto",
      "normalTexture": {
        "index": 0,
        "scale": 1,
        "texCoord": 0
      },
      "occlusionTexture": {
        "index": 2,
        "strength": 1,
        "texCoord": 0
      },
      "pbrMetallicRoughness": {
        "baseColorFactor": [
          1,
          1,
          1,
          1
        ],
        "baseColorTexture": {
          "index": 1,
          "texCoord": 0
        },
        "metallicFactor": 1,
        "metallicRoughnessTexture": {
          "index": 2,
          "texCoord": 0
        },
        "roughnessFactor": 1
      }
    }
  ],
  "meshes": [
    {
      "name": "G_Llanta_MTA_LLanta_0",
      "primitives": [
        {
          "attributes": {
            "NORMAL": 1,
            "POSITION": 0,
            "TANGENT": 2,
            "TEXCOORD_0": 3
          },
          "indices": 4,
          "material": 0,
          "mode": 4
        }
      ]
    },
    {
      "name": "G_Auto_MTA_Auto_0",
      "primitives": [
        {
          "attributes": {
            "NORMAL": 6,
            "POSITION": 5,
            "TANGENT": 7,
            "TEXCOORD_0": 8
          },
          "indices": 9,
          "material": 1,
          "mode": 4
        }
      ]
    },
    {
      "name": "G_Llanta001_MTA_LLanta_0",
      "primitives": [
        {
          "attributes": {
            "NORMAL": 11,
            "POSITION": 10,
            "TANGENT": 12,
            "TEXCOORD_0": 13
          },
          "indices": 14,
          "material": 0,
          "mode": 4
        }
      ]
    },
    {
      "name": "G_Llanta002_MTA_LLanta_0",
      "primitives": [
        {
          "attributes": {
            "NORMAL": 16,
            "POSITION": 15,
            "TANGENT": 17,
            "TEXCOORD_0": 18
          },
          "indices": 19,
          "material": 0,
          "mode": 4
        }
      ]
    },
    {
      "name": "G_Llanta003_MTA_LLanta_0",
      "primitives": [
        {
          "attributes": {
            "NORMAL": 21,
            "POSITION": 20,
            "TANGENT": 22,
            "TEXCOORD_0": 23
          },
          "indices": 24,
          "material": 0,
          "mode": 4
        }
      ]
    }
  ],
  "nodes": [
    {
      "children": [
        1
      ],
      "name": "RootNode (gltf orientation matrix)",
      "rotation": [
        -0.70710678118654746,
        -0,
        -0,
        0.70710678118654757
      ]
    },
    {
      "children": [
        2
      ],
      "name": "RootNode (model correction matrix)"
    },
    {
      "children": [
        3
      ],
      "matrix": [
        1,
        0,
        0,
        0,
        0,
        0,
        1,
        0,
        0,
        -1,
        0,
        0,
        0,
        0,
        0,
        1
      ],
      "name": "3d9617869bd5467dbee18288134b921d.fbx"
    },
    {
      "children": [
        4,
        7,
        10,
        13,
        16
      ],
      "name": "RootNode"
    },
    {
      "children": [
        5
      ],
      "matrix": [
        1,
        0,
        0,
        0,
        0,
        2.2204460492503131e-16,
        -1,
        0,
        0,
        1,
        2.2204460492503131e-16,
        0,
        -106.571044921875,
        28.55299186706543,
        81.423553466796875,
        1
      ],
      "name": "G_Llanta"
    },
    {
      "children": [
        6
      ],
      "matrix": [
        1,
        -0,
        0,
        0,
        0,
        6.123233995736766e-17,
        1,
        0,
        -0,
        -1,
        6.123233995736766e-17,
        0,
        0.050920486450195312,
        7.4505805969238281e-09,
        -0.052816379815340042,
        1
      ],
      "name": ""
    },
    {
      "mesh": 0,
      "name": "G_Llanta_MTA_LLanta_0"
    },
    {
      "children": [
        8
      ],
      "matrix": [
        1,
        0,
        0,
        0,
        0,
        0.99999999999998668,
        1.6292068494294582e-07,
        0,
        0,
        -1.6292068494294582e-07,
        0.99999999999998668,
        0,
        0,
        0,
        0,
        1
      ],
      "name": "G_Auto"
    },
    {
      "children": [
        9
      ],
      "matrix": [
        1,
        0,
        -0,
        0,
        0,
        1,
        0,
        0,
        0,
        0,
        1,
        0,
        -17.008766174316406,
        65.946578979492188,
        47.306167602539062,
        1
      ],
      "name": ""
    },
    {
      "mesh": 1,
      "name": "G_Auto_MTA_Auto_0"
    },
    {
      "children": [
        11
      ],
      "matrix": [
        1,
        0,
        0,
        0,
        0,
        2.2204460492503131e-16,
        -1,
        0,
        0,
        1,
        2.2204460492503131e-16,
        0,
        93.952163696289062,
        28.55299186706543,
        81.423553466796875,
        1
      ],
      "name": "G_Llanta001"
    },
    {
      "children": [
        12
      ],
      "matrix": [
        1,
        -0,
        0,
        0,
        0,
        6.123233995736766e-17,
        1,
        0,
        -0,
        -1,
        6.123233995736766e-17,
        0,
        0.050920486450195312,
        7.4505805969238281e-09,
        -0.052816379815340042,
        1
      ],
      "name": ""
    },
    {
      "mesh": 2,
      "name": "G_Llanta001_MTA_LLanta_0"
    },
    {
      "children": [
        14
      ],
      "matrix": [
        1,
        0,
        0,
        0,
        0,
        2.2204460492503131e-16,
        -1,
        0,
        0,
        1,
        2.2204460492503131e-16,
        0,
        -106.571044921875,
        28.55299186706543,
        -80.4261474609375,
        1
      ],
      "name": "G_Llanta002"
    },
    {
      "children": [
        15
      ],
      "matrix": [
        1,
        -0,
        0,
        0,
        0,
        6.123233995736766e-17,
        1,
        0,
        -0,
        -1,
        6.123233995736766e-17,
        0,
        0.050920486450195312,
        7.4505805969238281e-09,
        -0.052816379815340042,
        1
      ],
      "name": ""
    },
    {
      "mesh": 3,
      "name": "G_Llanta002_MTA_LLanta_0"
    },
    {
      "children": [
        17
      ],
      "matrix": [
        1,
        0,
        0,
        0,
        0,
        2.2204460492503131e-16,
        -1,
        0,
        0,
        1,
        2.2204460492503131e-16,
        0,
        93.952163696289062,
        28.55299186706543,
        -78.93353271484375,
        1
      ],
      "name": "G_Llanta003"
    },
    {
      "children": [
        18
      ],
      "matrix": [
        1,
        -0,
        0,
        0,
        0,
        6.123233995736766e-17,
        1,
        0,
        -0,
        -1,
        6.123233995736766e-17,
        0,
        0.050920486450195312,
        7.4505805969238281e-09,
        -0.052816379815340042,
        1
      ],
      "name": ""
    },
    {
      "mesh": 4,
      "name": "G_Llanta003_MTA_LLanta_0"
    }
  ],
  "samplers": [
    {
      "magFilter": 9729,
      "minFilter": 9987,
      "wrapS": 10497,
      "wrapT": 10497
    }
  ],
  "scene": 0,
  "scenes": [
    {
      "name": "OSG_Scene",
      "nodes": [
        0
      ]
    }
  ],
  "textures": [
    {
      "sampler": 0,
      "source": 0
    },
    {
      "sampler": 0,
      "source": 1
    },
    {
      "sampler": 0,
      "source": 2
    },
    {
      "sampler": 0,
      "source": 3
    },
    {
      "sampler": 0,
      "source": 4
    },
    {
      "sampler": 0,
      "source": 5
    },
    {
      "sampler": 0,
      "source": 6
    },
    {
      "sampler": 0,
      "source": 7
    }
  ]
}

