{
  "accessors": [
    {
      "bufferView": 2,
      "componentType": 5126,
      "count": 11344,
      "max": [
        96.99530029296875,
        175.34199523925781,
        165.77900695800781
      ],
      "min": [
        -98.178497314453125,
        -158.16000366210938,
        25.642200469970703
      ],
      "type": "VEC3"
    },
    {
      "bufferView": 2,
      "byteOffset": 136128,
      "componentType": 5126,
      "count": 11344,
      "max": [
        1,
        1,
        1
      ],
      "min": [
        -1,
        -1,
        -1
      ],
      "type": "VEC3"
    },
    {
      "bufferView": 3,
      "componentType": 5126,
      "count": 11344,
      "max": [
        1,
        1,
        1,
        1
      ],
      "min": [
        -1,
        -1,
        -1,
        -1
      ],
      "type": "VEC4"
    },
    {
      "bufferView": 1,
      "componentType": 5126,
      "count": 11344,
      "max": [
        0.9915739893913269,
        1.0002199411392212
      ],
      "min": [
        0.0021389999892562628,
        0.0012900000438094139
      ],
      "type": "VEC2"
    },
    {
      "bufferView": 0,
      "componentType": 5125,
      "count": 28494,
      "max": [
        11343
      ],
      "min": [
        0
      ],
      "type": "SCALAR"
    },
    {
      "bufferView": 2,
      "byteOffset": 272256,
      "componentType": 5126,
      "count": 5418,
      "max": [
        98.178596496582031,
        152.72500610351562,
        132.71499633789062
      ],
      "min": [
        -97.323898315429688,
        -156.95399475097656,
        -1.3013800382614136
      ],
      "type": "VEC3"
    },
    {
      "bufferView": 2,
      "byteOffset": 337272,
      "componentType": 5126,
      "count": 5418,
      "max": [
        1,
        0.99831730127334595,
        0.9998931884765625
      ],
      "min": [
        -1,
        -0.99899554252624512,
        -0.99960321187973022
      ],
      "type": "VEC3"
    },
    {
      "bufferView": 3,
      "byteOffset": 181504,
      "componentType": 5126,
      "count": 5418,
      "max": [
        0.99990379810333252,
        1,
        0.99990904331207275,
        1
      ],
      "min": [
        -0.99990373849868774,
        -1,
        -1,
        -1
      ],
      "type": "VEC4"
    },
    {
      "bufferView": 1,
      "byteOffset": 90752,
      "componentType": 5126,
      "count": 5418,
      "max": [
        0.99839597940444946,
        0.99879300594329834
      ],
      "min": [
        0.006370999850332737,
        0.0014329999685287476
      ],
      "type": "VEC2"
    },
    {
      "bufferView": 0,
      "byteOffset": 113976,
      "componentType": 5125,
      "count": 14244,
      "max": [
        5417
      ],
      "min": [
        0
      ],
      "type": "SCALAR"
    },
    {
      "bufferView": 2,
      "byteOffset": 402288,
      "componentType": 5126,
      "count": 52,
      "max": [
        24.056900024414062,
        33.287799835205078,
        151.22599792480469
      ],
      "min": [
        -25.475700378417969,
        -145.56500244140625,
        122.57700347900391
      ],
      "type": "VEC3"
    },
    {
      "bufferView": 2,
      "byteOffset": 402912,
      "componentType": 5126,
      "count": 52,
      "max": [
        1,
        0.49958187341690063,
        0.86722129583358765
      ],
      "min": [
        -1,
        -0.99952185153961182,
        -0.033426720649003983
      ],
      "type": "VEC3"
    },
    {
      "bufferView": 3,
      "byteOffset": 268192,
      "componentType": 5126,
      "count": 52,
      "max": [
        0.9994513988494873,
        1,
        0.054228696972131729,
        1
      ],
      "min": [
        -1,
        -1,
        -0.078675583004951477,
        -1
      ],
      "type": "VEC4"
    },
    {
      "bufferView": 1,
      "byteOffset": 134096,
      "componentType": 5126,
      "count": 52,
      "max": [
        0.99393701553344727,
        0.99186897277832031
      ],
      "min": [
        0.0073540001176297665,
        0.44525998830795288
      ],
      "type": "VEC2"
    },
    {
      "bufferView": 0,
      "byteOffset": 170952,
      "componentType": 5125,
      "count": 96,
      "max": [
        51
      ],
      "min": [
        0
      ],
      "type": "SCALAR"
    }
  ],
  "asset": {
    "extras": {
      "author": "danieljorge435 (https://sketchfab.com/danieljorge435)",
      "license": "CC-BY-4.0 (http://creativecommons.org/licenses/by/4.0/)",
      "source": "https://sketchfab.com/3d-models/huerlimann-d110-534c16860878465cb7b733629c1602d8",
      "title": "Huerlimann D110"
    },
    "generator": "Sketchfab-4.79.0",
    "version": "2.0"
  },
  "bufferViews": [
    {
      "buffer": 0,
      "byteLength": 171336,
      "byteOffset": 0,
      "name": "floatBufferViews",
      "target": 34963
    },
    {
      "buffer": 0,
      "byteLength": 134512,
      "byteOffset": 171336,
      "byteStride": 8,
      "name": "floatBufferViews",
      "target": 34962
    },
    {
      "buffer": 0,
      "byteLength": 403536,
      "byteOffset": 305848,
      "byteStride": 12,
      "name": "floatBufferViews",
      "target": 34962
    },
    {
      "buffer": 0,
      "byteLength": 269024,
      "byteOffset": 709384,
      "byteStride": 16,
      "name": "floatBufferViews",
      "target": 34962
    }
  ],
  "buffers": [
    {
      "byteLength": 978408,
      "uri": "scene.bin"
    }
  ],
  "images": [
    {
      "uri": "textures/Mat_1_baseColor.jpeg"
    },
    {
      "uri": "textures/Mat_2_baseColor.png"
    },
    {
      "uri": "textures/material_baseColor.jpeg"
    }
  ],
  "materials": [
    {
      "doubleSided": true,
      "name": "material",
      "pbrMetallicRoughness": {
        "baseColorFactor": [
          1,
          1,
          1,
          1
        ],
        "baseColorTexture": {
          "index": 2,
          "texCoord": 0
        },
        "metallicFactor": 0.16025152440000001,
        "roughnessFactor": 0.59999999999999998
      }
    },
    {
      "doubleSided": true,
      "name": "Mat_1",
      "pbrMetallicRoughness": {
        "baseColorFactor": [
          1,
          1,
          1,
          1
        ],
        "baseColorTexture": {
          "index": 0,
          "texCoord": 0
        },
        "metallicFactor": 0.91025152440000001,
        "roughnessFactor": 0.59999999999999998
      }
    },
    {
      "alphaMode": "BLEND",
      "doubleSided": true,
      "name": "Mat_2",
      "pbrMetallicRoughness": {
        "baseColorFactor": [
          1,
          1,
          1,
          1
        ],
        "baseColorTexture": {
          "index": 1,
          "texCoord": 0
        },
        "metallicFactor": 0,
        "roughnessFactor": 0.59999999999999998
      }
    }
  ],
  "meshes": [
    {
      "primitives": [
        {
          "attributes": {
            "NORMAL": 1,
            "POSITION": 0,
            "TANGENT": 2,
            "TEXCOORD_0": 3
          },
          "indices": 4,
          "material": 0,
          "mode": 4
        }
      ]
    },
    {
      "primitives": [
        {
          "attributes": {
            "NORMAL": 6,
            "POSITION": 5,
            "TANGENT": 7,
            "TEXCOORD_0": 8
          },
          "indices": 9,
          "material": 1,
          "mode": 4
        }
      ]
    },
    {
      "primitives": [
        {
          "attributes": {
            "NORMAL": 11,
            "POSITION": 10,
            "TANGENT": 12,
            "TEXCOORD_0": 13
          },
          "indices": 14,
          "material": 2,
          "mode": 4
        }
      ]
    }
  ],
  "nodes": [
    {
      "children": [
        1
      ],
      "name": "RootNode (gltf orientation matrix)",
      "rotation": [
        -0.70710678118654746,
        -0,
        -0,
        0.70710678118654757
      ]
    },
    {
      "children": [
        2
      ],
      "matrix": [
        0.66494697332382202,
        0.74689054489135742,
        0,
        0,
        -0.74689054489135742,
        0.66494697332382202,
        0,
        0,
        0,
        0,
        1,
        0,
        6.4167370796203613,
        2.8785200119018555,
        0,
        1
      ],
      "name": "RootNode (model correction matrix)"
    },
    {
      "children": [
        3,
        4,
        5
      ],
      "name": "TRACTOR.obj.cleaner.materialmerger.gles"
    },
    {
      "mesh": 0,
      "name": ""
    },
    {
      "mesh": 1,
      "name": ""
    },
    {
      "mesh": 2,
      "name": ""
    }
  ],
  "samplers": [
    {
      "magFilter": 9729,
      "minFilter": 9987,
      "wrapS": 10497,
      "wrapT": 10497
    }
  ],
  "scene": 0,
  "scenes": [
    {
      "name": "OSG_Scene",
      "nodes": [
        0
      ]
    }
  ],
  "textures": [
    {
      "sampler": 0,
      "source": 0
    },
    {
      "sampler": 0,
      "source": 1
    },
    {
      "sampler": 0,
      "source": 2
    }
  ]
}

