{
  "accessors": [
    {
      "bufferView": 2,
      "componentType": 5126,
      "count": 4,
      "max": [
        1.2699999809265137,
        1.2699999809265137,
        0
      ],
      "min": [
        -1.2699999809265137,
        -1.2699999809265137,
        0
      ],
      "type": "VEC3"
    },
    {
      "bufferView": 2,
      "byteOffset": 48,
      "componentType": 5126,
      "count": 4,
      "max": [
        0,
        -0,
        1
      ],
      "min": [
        0,
        -0,
        1
      ],
      "type": "VEC3"
    },
    {
      "bufferView": 3,
      "componentType": 5126,
      "count": 4,
      "max": [
        1,
        0,
        0,
        1
      ],
      "min": [
        1,
        0,
        0,
        1
      ],
      "type": "VEC4"
    },
    {
      "bufferView": 1,
      "componentType": 5126,
      "count": 4,
      "max": [
        1,
        1
      ],
      "min": [
        0,
        0
      ],
      "type": "VEC2"
    },
    {
      "bufferView": 0,
      "componentType": 5125,
      "count": 12,
      "max": [
        3
      ],
      "min": [
        0
      ],
      "type": "SCALAR"
    },
    {
      "bufferView": 2,
      "byteOffset": 96,
      "componentType": 5126,
      "count": 338,
      "max": [
        5623.41748046875,
        120.40199279785156,
        846.75592041015625
      ],
      "min": [
        -6151.9609375,
        -1338.0262451171875,
        -851.0205078125
      ],
      "type": "VEC3"
    },
    {
      "bufferView": 2,
      "byteOffset": 4152,
      "componentType": 5126,
      "count": 338,
      "max": [
        0.99999886751174927,
        0.20410692691802979,
        1
      ],
      "min": [
        -0.055899027734994888,
        -1,
        -1
      ],
      "type": "VEC3"
    },
    {
      "bufferView": 3,
      "byteOffset": 64,
      "componentType": 5126,
      "count": 338,
      "max": [
        1,
        0.14369510114192963,
        1,
        1
      ],
      "min": [
        -1,
        -0.3255678117275238,
        -1,
        -1
      ],
      "type": "VEC4"
    },
    {
      "bufferView": 1,
      "byteOffset": 32,
      "componentType": 5126,
      "count": 338,
      "max": [
        0.95820200443267822,
        0.99819999933242798
      ],
      "min": [
        -0.024451000615954399,
        0.0059890002012252808
      ],
      "type": "VEC2"
    },
    {
      "bufferView": 0,
      "byteOffset": 48,
      "componentType": 5125,
      "count": 528,
      "max": [
        337
      ],
      "min": [
        0
      ],
      "type": "SCALAR"
    },
    {
      "bufferView": 2,
      "byteOffset": 8208,
      "componentType": 5126,
      "count": 2698,
      "max": [
        -104.72395324707031,
        -541.0247802734375,
        842.28076171875
      ],
      "min": [
        -2222.172119140625,
        -1813.6705322265625,
        -841.78533935546875
      ],
      "type": "VEC3"
    },
    {
      "bufferView": 2,
      "byteOffset": 40584,
      "componentType": 5126,
      "count": 2698,
      "max": [
        1,
        1,
        1
      ],
      "min": [
        -1,
        -1,
        -1
      ],
      "type": "VEC3"
    },
    {
      "bufferView": 3,
      "byteOffset": 5472,
      "componentType": 5126,
      "count": 2698,
      "max": [
        1,
        1,
        1,
        1
      ],
      "min": [
        -1,
        -1,
        -1,
        -1
      ],
      "type": "VEC4"
    },
    {
      "bufferView": 1,
      "byteOffset": 2736,
      "componentType": 5126,
      "count": 2698,
      "max": [
        0.67220002412796021,
        0.93545502424240112
      ],
      "min": [
        0.0032379999756813049,
        0.00046000001020729542
      ],
      "type": "VEC2"
    },
    {
      "bufferView": 0,
      "byteOffset": 2160,
      "componentType": 5125,
      "count": 7530,
      "max": [
        2697
      ],
      "min": [
        0
      ],
      "type": "SCALAR"
    },
    {
      "bufferView": 2,
      "byteOffset": 72960,
      "componentType": 5126,
      "count": 603,
      "max": [
        5650.30859375,
        -479.00946044921875,
        865.7498779296875
      ],
      "min": [
        -6925.0302734375,
        -2548.097900390625,
        -865.2547607421875
      ],
      "type": "VEC3"
    },
    {
      "bufferView": 2,
      "byteOffset": 80196,
      "componentType": 5126,
      "count": 603,
      "max": [
        1,
        1,
        1
      ],
      "min": [
        -1,
        -1,
        -1
      ],
      "type": "VEC3"
    },
    {
      "bufferView": 3,
      "byteOffset": 48640,
      "componentType": 5126,
      "count": 603,
      "max": [
        1,
        1,
        1,
        1
      ],
      "min": [
        -1,
        -0.90528213977813721,
        -1,
        -1
      ],
      "type": "VEC4"
    },
    {
      "bufferView": 1,
      "byteOffset": 24320,
      "componentType": 5126,
      "count": 603,
      "max": [
        40.363494873046875,
        1.0023430585861206
      ],
      "min": [
        -39.6671142578125,
        -0.0011279999744147062
      ],
      "type": "VEC2"
    },
    {
      "bufferView": 0,
      "byteOffset": 32280,
      "componentType": 5125,
      "count": 1041,
      "max": [
        602
      ],
      "min": [
        0
      ],
      "type": "SCALAR"
    },
    {
      "bufferView": 2,
      "byteOffset": 87432,
      "componentType": 5126,
      "count": 1168,
      "max": [
        5512.66064453125,
        -91.828346252441406,
        842.28082275390625
      ],
      "min": [
        -6826.99169921875,
        -1934.5263671875,
        -841.78533935546875
      ],
      "type": "VEC3"
    },
    {
      "bufferView": 2,
      "byteOffset": 101448,
      "componentType": 5126,
      "count": 1168,
      "max": [
        1,
        3.0000007882335922e-06,
        0.9999997615814209
      ],
      "min": [
        -1,
        -1,
        -1
      ],
      "type": "VEC3"
    },
    {
      "bufferView": 3,
      "byteOffset": 58288,
      "componentType": 5126,
      "count": 1168,
      "max": [
        1,
        0.0489090196788311,
        1,
        1
      ],
      "min": [
        -0.97814762592315674,
        -0.14690007269382477,
        -1,
        1
      ],
      "type": "VEC4"
    },
    {
      "bufferView": 1,
      "byteOffset": 29144,
      "componentType": 5126,
      "count": 1168,
      "max": [
        0.49735799431800842,
        0.75228500366210938
      ],
      "min": [
        0.0032379999756813049,
        0.0065069999545812607
      ],
      "type": "VEC2"
    },
    {
      "bufferView": 0,
      "byteOffset": 36444,
      "componentType": 5125,
      "count": 1875,
      "max": [
        1167
      ],
      "min": [
        0
      ],
      "type": "SCALAR"
    },
    {
      "bufferView": 2,
      "byteOffset": 115464,
      "componentType": 5126,
      "count": 5297,
      "max": [
        4880.34130859375,
        437.660888671875,
        865.7515869140625
      ],
      "min": [
        -6925.0302734375,
        -2609.08154296875,
        -865.2562255859375
      ],
      "type": "VEC3"
    },
    {
      "bufferView": 2,
      "byteOffset": 179028,
      "componentType": 5126,
      "count": 5297,
      "max": [
        1,
        1,
        1
      ],
      "min": [
        -1,
        -1,
        -1
      ],
      "type": "VEC3"
    },
    {
      "bufferView": 3,
      "byteOffset": 76976,
      "componentType": 5126,
      "count": 5297,
      "max": [
        1,
        1,
        1,
        1
      ],
      "min": [
        -1,
        -1,
        -1,
        -1
      ],
      "type": "VEC4"
    },
    {
      "bufferView": 1,
      "byteOffset": 38488,
      "componentType": 5126,
      "count": 5297,
      "max": [
        1.0122740268707275,
        0.98977398872375488
      ],
      "min": [
        0.00034100000630132854,
        -0.84241598844528198
      ],
      "type": "VEC2"
    },
    {
      "bufferView": 0,
      "byteOffset": 43944,
      "componentType": 5125,
      "count": 13296,
      "max": [
        5296
      ],
      "min": [
        0
      ],
      "type": "SCALAR"
    },
    {
      "bufferView": 2,
      "byteOffset": 242592,
      "componentType": 5126,
      "count": 7243,
      "max": [
        5733.01171875,
        437.660888671875,
        865.7515869140625
      ],
      "min": [
        -6458.1181640625,
        -2540.24267578125,
        -865.2562255859375
      ],
      "type": "VEC3"
    },
    {
      "bufferView": 2,
      "byteOffset": 329508,
      "componentType": 5126,
      "count": 7243,
      "max": [
        1,
        1,
        1
      ],
      "min": [
        -1,
        -1,
        -1
      ],
      "type": "VEC3"
    },
    {
      "bufferView": 3,
      "byteOffset": 161728,
      "componentType": 5126,
      "count": 7243,
      "max": [
        1,
        1,
        1,
        1
      ],
      "min": [
        -1,
        -1,
        -1,
        -1
      ],
      "type": "VEC4"
    },
    {
      "bufferView": 1,
      "byteOffset": 80864,
      "componentType": 5126,
      "count": 7243,
      "max": [
        0.99852800369262695,
        0.9912790060043335
      ],
      "min": [
        0.00081900000805035233,
        -0.38561001420021057
      ],
      "type": "VEC2"
    },
    {
      "bufferView": 0,
      "byteOffset": 97128,
      "componentType": 5125,
      "count": 19545,
      "max": [
        7242
      ],
      "min": [
        0
      ],
      "type": "SCALAR"
    }
  ],
  "asset": {
    "extras": {
      "author": "3D-RENDER (https://sketchfab.com/3D-RENDER)",
      "license": "CC-BY-4.0 (http://creativecommons.org/licenses/by/4.0/)",
      "source": "https://sketchfab.com/3d-models/japanese-merchant-ship-d34ba75777114e45b29a541b029ca733",
      "title": "Japanese Merchant Ship"
    },
    "generator": "Sketchfab-4.79.0",
    "version": "2.0"
  },
  "bufferViews": [
    {
      "buffer": 0,
      "byteLength": 175308,
      "byteOffset": 0,
      "name": "floatBufferViews",
      "target": 34963
    },
    {
      "buffer": 0,
      "byteLength": 138808,
      "byteOffset": 175308,
      "byteStride": 8,
      "name": "floatBufferViews",
      "target": 34962
    },
    {
      "buffer": 0,
      "byteLength": 416424,
      "byteOffset": 314116,
      "byteStride": 12,
      "name": "floatBufferViews",
      "target": 34962
    },
    {
      "buffer": 0,
      "byteLength": 277616,
      "byteOffset": 730540,
      "byteStride": 16,
      "name": "floatBufferViews",
      "target": 34962
    }
  ],
  "buffers": [
    {
      "byteLength": 1008156,
      "uri": "scene.bin"
    }
  ],
  "images": [
    {
      "uri": "textures/mtl_merchant_jap_wood_baseColor.png"
    },
    {
      "uri": "textures/mtl_merchant_jap_decals_baseColor.png"
    },
    {
      "uri": "textures/mtl_merchant_jap_lit_baseColor.png"
    },
    {
      "uri": "textures/lambert1_baseColor.png"
    },
    {
      "uri": "textures/mtl_merchant_jap_metal_baseColor.png"
    },
    {
      "uri": "textures/mtl_merchant_jap_rail_baseColor.png"
    }
  ],
  "materials": [
    {
      "doubleSided": true,
      "emissiveFactor": [
        0,
        0,
        0
      ],
      "name": "lambert1",
      "pbrMetallicRoughness": {
        "baseColorFactor": [
          1,
          1,
          1,
          1
        ],
        "baseColorTexture": {
          "index": 3,
          "texCoord": 0
        },
        "metallicFactor": 0,
        "roughnessFactor": 1
      }
    },
    {
      "alphaMode": "BLEND",
      "doubleSided": true,
      "emissiveFactor": [
        0,
        0,
        0
      ],
      "name": "mtl_merchant_jap_decals",
      "pbrMetallicRoughness": {
        "baseColorFactor": [
          1,
          1,
          1,
          1
        ],
        "baseColorTexture": {
          "index": 1,
          "texCoord": 0
        },
        "metallicFactor": 0,
        "roughnessFactor": 1
      }
    },
    {
      "doubleSided": true,
      "emissiveFactor": [
        0,
        0,
        0
      ],
      "name": "mtl_merchant_jap_lit",
      "pbrMetallicRoughness": {
        "baseColorFactor": [
          1,
          1,
          1,
          1
        ],
        "baseColorTexture": {
          "index": 2,
          "texCoord": 0
        },
        "metallicFactor": 0,
        "roughnessFactor": 1
      }
    },
    {
      "doubleSided": true,
      "emissiveFactor": [
        0,
        0,
        0
      ],
      "name": "mtl_merchant_jap_metal",
      "pbrMetallicRoughness": {
        "baseColorFactor": [
          1,
          1,
          1,
          1
        ],
        "baseColorTexture": {
          "index": 4,
          "texCoord": 0
        },
        "metallicFactor": 0,
        "roughnessFactor": 1
      }
    },
    {
      "alphaMode": "BLEND",
      "doubleSided": true,
      "emissiveFactor": [
        0,
        0,
        0
      ],
      "name": "mtl_merchant_jap_rail",
      "pbrMetallicRoughness": {
        "baseColorFactor": [
          1,
          1,
          1,
          1
        ],
        "baseColorTexture": {
          "index": 5,
          "texCoord": 0
        },
        "metallicFactor": 0,
        "roughnessFactor": 1
      }
    },
    {
      "doubleSided": true,
      "emissiveFactor": [
        0,
        0,
        0
      ],
      "name": "mtl_merchant_jap_wood",
      "pbrMetallicRoughness": {
        "baseColorFactor": [
          1,
          1,
          1,
          1
        ],
        "baseColorTexture": {
          "index": 0,
          "texCoord": 0
        },
        "metallicFactor": 0,
        "roughnessFactor": 1
      }
    }
  ],
  "meshes": [
    {
      "primitives": [
        {
          "attributes": {
            "NORMAL": 1,
            "POSITION": 0,
            "TANGENT": 2,
            "TEXCOORD_0": 3
          },
          "indices": 4,
          "material": 0,
          "mode": 4
        }
      ]
    },
    {
      "primitives": [
        {
          "attributes": {
            "NORMAL": 6,
            "POSITION": 5,
            "TANGENT": 7,
            "TEXCOORD_0": 8
          },
          "indices": 9,
          "material": 1,
          "mode": 4
        }
      ]
    },
    {
      "primitives": [
        {
          "attributes": {
            "NORMAL": 11,
            "POSITION": 10,
            "TANGENT": 12,
            "TEXCOORD_0": 13
          },
          "indices": 14,
          "material": 2,
          "mode": 4
        }
      ]
    },
    {
      "primitives": [
        {
          "attributes": {
            "NORMAL": 16,
            "POSITION": 15,
            "TANGENT": 17,
            "TEXCOORD_0": 18
          },
          "indices": 19,
          "material": 4,
          "mode": 4
        }
      ]
    },
    {
      "primitives": [
        {
          "attributes": {
            "NORMAL": 21,
            "POSITION": 20,
            "TANGENT": 22,
            "TEXCOORD_0": 23
          },
          "indices": 24,
          "material": 5,
          "mode": 4
        }
      ]
    },
    {
      "primitives": [
        {
          "attributes": {
            "NORMAL": 26,
            "POSITION": 25,
            "TANGENT": 27,
            "TEXCOORD_0": 28
          },
          "indices": 29,
          "material": 3,
          "mode": 4
        }
      ]
    },
    {
      "primitives": [
        {
          "attributes": {
            "NORMAL": 31,
            "POSITION": 30,
            "TANGENT": 32,
            "TEXCOORD_0": 33
          },
          "indices": 34,
          "material": 3,
          "mode": 4
        }
      ]
    }
  ],
  "nodes": [
    {
      "children": [
        1
      ],
      "name": "RootNode (gltf orientation matrix)",
      "rotation": [
        -0.70710678118654746,
        -0,
        -0,
        0.70710678118654757
      ]
    },
    {
      "children": [
        2
      ],
      "matrix": [
        1,
        0,
        0,
        0,
        0,
        0,
        -1,
        0,
        0,
        1,
        0,
        0,
        0,
        -1085.9437255859375,
        -1085.4674072265625,
        1
      ],
      "name": "RootNode (model correction matrix)"
    },
    {
      "children": [
        3,
        4,
        5,
        6,
        7,
        8,
        9
      ],
      "name": "vehicle_jap_boats_merch_LOD00.obj.cleaner.materialmerger.gles"
    },
    {
      "mesh": 0,
      "name": ""
    },
    {
      "mesh": 1,
      "name": ""
    },
    {
      "mesh": 2,
      "name": ""
    },
    {
      "mesh": 3,
      "name": ""
    },
    {
      "mesh": 4,
      "name": ""
    },
    {
      "mesh": 5,
      "name": ""
    },
    {
      "mesh": 6,
      "name": ""
    }
  ],
  "samplers": [
    {
      "magFilter": 9729,
      "minFilter": 9987,
      "wrapS": 10497,
      "wrapT": 10497
    }
  ],
  "scene": 0,
  "scenes": [
    {
      "name": "OSG_Scene",
      "nodes": [
        0
      ]
    }
  ],
  "textures": [
    {
      "sampler": 0,
      "source": 0
    },
    {
      "sampler": 0,
      "source": 1
    },
    {
      "sampler": 0,
      "source": 2
    },
    {
      "sampler": 0,
      "source": 3
    },
    {
      "sampler": 0,
      "source": 4
    },
    {
      "sampler": 0,
      "source": 5
    }
  ]
}

